<svg width="100" height="100" viewBox="0 0 100 100" fill="none" xmlns="http://www.w3.org/2000/svg" class="library-empty__icon"><path d="M50 100c27.614 0 50-22.386 50-50S77.614 0 50 0 0 22.386 0 50s22.386 50 50 50z" fill="#FD6462"></path><path fill-rule="evenodd" clip-rule="evenodd" d="M70.765 75.419H47.486v2.923h23.28c.768 0 1.391-.694 1.391-1.462 0-.767-.623-1.461-1.392-1.461z" fill="#FAF000"></path><path fill-rule="evenodd" clip-rule="evenodd" d="M70.17 20H32.407C29.47 20 27 22.418 27 25.35l.072 48.058-.004.163c0 2.351 1.927 4.354 3.763 4.354h3.882v-2.923h-3.882c-.292 0-.962-.643-.962-1.461 0-.818.67-1.462 1.494-1.462h38.852c.922 0 1.735-.805 1.735-1.726V21.73c0-.94-.836-1.73-1.78-1.73z" fill="#FAF000"></path><path fill-rule="evenodd" clip-rule="evenodd" d="M36.313 73.743v8.331l4.97-3.893 4.87 3.893v-8.33l-9.84-.001z" fill="#FAF000"></path><path fill-rule="evenodd" clip-rule="evenodd" d="M39 49h22v2H39v-2zm6.112-7.17a3.282 3.282 0 11-6.564 0 3.282 3.282 0 016.564 0zm16.201 0a3.28 3.28 0 01-4.538 3.032 3.281 3.281 0 114.538-3.032z" fill="#FD6462"></path></svg>