<svg width="24" height="24" viewBox="0 0 24 22" fill="none" xmlns="http://www.w3.org/2000/svg" class="live-lib-widget__icon"><defs><linearGradient id="ll_logo_24x24_svg__yandex-dzen-a" x1="24" y1="8.937" x2="0" y2="8.938" gradientUnits="userSpaceOnUse"><stop stop-color="#3E99ED"></stop><stop offset="1" stop-color="#72CFFF"></stop></linearGradient></defs><path fill-rule="evenodd" clip-rule="evenodd" d="M17.489 19.215l-4.019 2.388c-.207.123-.73.397-1.468.397a2.834 2.834 0 01-1.467-.397A689.303 689.303 0 012.276 16.7C.942 15.891 0 15.23 0 13.704c.005-.943.01-10.732.01-12.067C.01.303 1.234-.5 2.702.36c1.469.86 9.299 5.523 9.299 5.523s7.993-4.76 9.298-5.523c1.5-.876 2.692-.031 2.692 1.268l.004 5.686.005 6.394c0 1.503-.892 2.176-2.277 2.993-.796.47-2.428 1.44-4.234 2.515z" fill="url(#ll_logo_24x24_svg__yandex-dzen-a)"></path></svg>