<svg viewBox="0 0 24 24" xmlns="http://www.w3.org/2000/svg" width="24" height="24"><path fill = "#78695e" fill-rule="evenodd" clip-rule="evenodd" d="M4 4a2 2 0 00-2 2v5a2 2 0 002 2h4.8c-.318 1.571-.976 2.668-1.723 3.424-1.286 1.302-2.963 1.73-4.077 1.73-.552 0-1 .413-1 .923S2.448 20 3 20c1.584 0 3.833-.588 5.555-2.332 1.415-1.432 2.393-3.56 2.443-6.578L11 11V6a2 2 0 00-2-2H4zm11 0a2 2 0 00-2 2v5a2 2 0 002 2h4.8c-.318 1.571-.976 2.668-1.723 3.424-1.286 1.302-2.963 1.73-4.077 1.73-.552 0-1 .413-1 .923s.448.923 1 .923c1.585 0 3.833-.588 5.555-2.332 1.415-1.432 2.393-3.56 2.443-6.578L22 11V6a2 2 0 00-2-2h-5z"></path></svg>