<svg viewBox="0 0 24 24" xmlns="http://www.w3.org/2000/svg" width="24" height="24" fill = "#ff8000" class="rating-widget__icon"><path fill-rule="evenodd" clip-rule="evenodd" d="M12.89 20.005a1.844 1.844 0 00-1.78 0l-3.218 1.762c-1.403.768-3.041-.472-2.774-2.098l.615-3.732a2.042 2.042 0 00-.55-1.761L2.58 11.532c-1.134-1.152-.508-3.158 1.06-3.395l3.598-.544a1.919 1.919 0 001.44-1.09l1.609-3.395a1.879 1.879 0 013.428 0l1.61 3.396c.278.587.816.994 1.439 1.089l3.598.544c1.568.237 2.194 2.243 1.06 3.395l-2.604 2.643a2.042 2.042 0 00-.55 1.761l.615 3.732c.267 1.626-1.371 2.866-2.774 2.098l-3.219-1.762z"></path></svg>